<svg xmlns="http://www.w3.org/2000/svg" width="46.545" height="48" viewBox="0 0 46.545 48">
  <g>
    <rect x="4.727" y="15.637" width="37.091" height="30.909" fill="#f1bb6b"/>
    <polygon points="46.545 15.637 0 15.637 4.364 0 23.273 0 42.182 0 46.545 15.637" fill="#e49a61"/>
    <g>
      <path d="M12.546,33.153H11.091a2.367,2.367,0,0,0-2.364,2.363v4.545h6.182V35.516A2.365,2.365,0,0,0,12.546,33.153Z" fill="#e2e2e2"/>
      <path d="M12.546,20.424H11.091a2.366,2.366,0,0,0-2.364,2.363v4.545h6.182V22.787A2.365,2.365,0,0,0,12.546,20.424Z" fill="#e2e2e2"/>
      <rect x="19.455" y="33.153" width="7.637" height="14.303" fill="#e2e2e2"/>
      <path d="M22.545,20.424a2.366,2.366,0,0,0-2.363,2.363v4.545h6.182V22.787A2.366,2.366,0,0,0,24,20.424Z" fill="#e2e2e2"/>
      <path d="M26.727,6.728a2.366,2.366,0,0,0-2.364-2.363H22.181a2.367,2.367,0,0,0-2.364,2.363v4.546h6.909V6.728Z" fill="#e2e2e2"/>
      <path d="M36.728,4.364H34.546a2.366,2.366,0,0,0-2.363,2.363v4.546h6.909V6.727A2.366,2.366,0,0,0,36.728,4.364Z" fill="#e2e2e2"/>
      <path d="M14.362,6.728A2.366,2.366,0,0,0,12,4.365H9.816A2.367,2.367,0,0,0,7.452,6.728v4.546h6.909V6.728Z" fill="#e2e2e2"/>
      <path d="M35.454,33.153H34a2.366,2.366,0,0,0-2.364,2.363v4.545h6.182V35.516A2.366,2.366,0,0,0,35.454,33.153Z" fill="#e2e2e2"/>
      <path d="M35.454,20.424H34a2.366,2.366,0,0,0-2.364,2.363v4.545h6.182V22.787A2.366,2.366,0,0,0,35.454,20.424Z" fill="#e2e2e2"/>
    </g>
    <g>
      <path d="M12.546,32.608H11.092a2.908,2.908,0,0,0-2.909,2.908v5.091h7.272V35.516A2.908,2.908,0,0,0,12.546,32.608Zm1.818,6.908H9.273v-4A1.82,1.82,0,0,1,11.091,33.7h1.454a1.819,1.819,0,0,1,1.818,1.818v4Z" fill="#7a8e9b"/>
      <path d="M12.546,19.878H11.092a2.909,2.909,0,0,0-2.909,2.909v5.092h7.272V22.787A2.909,2.909,0,0,0,12.546,19.878Zm1.818,6.909H9.273v-4a1.821,1.821,0,0,1,1.818-1.818h1.454a1.82,1.82,0,0,1,1.818,1.818v4Z" fill="#7a8e9b"/>
      <path d="M18.909,48h8.727V32.607H18.909ZM20,33.7h6.545V46.91H20Z" fill="#7a8e9b"/>
      <path d="M22.545,19.878a2.91,2.91,0,0,0-2.909,2.909v5.092h7.272V22.787A2.909,2.909,0,0,0,24,19.878Zm3.273,2.909v4H20.727v-4a1.82,1.82,0,0,1,1.818-1.818H24A1.821,1.821,0,0,1,25.818,22.787Z" fill="#7a8e9b"/>
      <path d="M36.729,3.819H34.547a2.91,2.91,0,0,0-2.909,2.909v5.091h8V6.728A2.911,2.911,0,0,0,36.729,3.819Zm-4,6.91v-4a1.82,1.82,0,0,1,1.818-1.817h.545v5.818Zm5.819,0H36.183V4.911h.546a1.82,1.82,0,0,1,1.818,1.817Z" fill="#7a8e9b"/>
      <path d="M35.454,32.608H34a2.909,2.909,0,0,0-2.909,2.908v5.091h7.273V35.516A2.908,2.908,0,0,0,35.454,32.608Zm1.818,6.908h-5.09v-4A1.819,1.819,0,0,1,34,33.7h1.455a1.82,1.82,0,0,1,1.818,1.818v4Z" fill="#7a8e9b"/>
      <path d="M35.454,19.878H34a2.91,2.91,0,0,0-2.909,2.909v5.092h7.273V22.787A2.91,2.91,0,0,0,35.454,19.878Zm1.818,6.909h-5.09v-4A1.82,1.82,0,0,1,34,20.969h1.455a1.821,1.821,0,0,1,1.818,1.818v4Z" fill="#7a8e9b"/>
      <path d="M10.362,11.819h4.546V6.728A2.91,2.91,0,0,0,12,3.819H9.817A2.91,2.91,0,0,0,6.908,6.728v5.091Zm3.455-5.091v4H11.453V4.911H12A1.819,1.819,0,0,1,13.817,6.728ZM8,10.729v-4A1.82,1.82,0,0,1,9.816,4.911h.545v5.818Z" fill="#7a8e9b"/>
      <path d="M22.727,11.819h4.546V6.728a2.91,2.91,0,0,0-2.909-2.909H22.182a2.909,2.909,0,0,0-2.909,2.909v5.091Zm3.455-5.091v4H23.818V4.911h.545A1.819,1.819,0,0,1,26.182,6.728Zm-5.818,4v-4a1.819,1.819,0,0,1,1.818-1.817h.545v5.818Z" fill="#7a8e9b"/>
    </g>
    <rect y="46.546" width="46.545" height="1.454" fill="#525c6b"/>
    <circle cx="25.322" cy="40.501" r="0.545" fill="#525c6b"/>
  </g>
</svg>
